# xmcd CD database file
#
# Track frame offsets:
#	151
#	27912
#	52299
#	62043
#	95530
#	120004
#	134117
#	142317
#	169584
#	185789
#	210090
#	261843
#	287504
#	313446
#	327391
#	343524
#
# Disc length: 4786 seconds
#
# Revision: 0
# Processed by: cddbd v1.5.2PL0 Copyright (c) Steve Scherf et al.
# Submitted via: CDex 1.51
#
DISCID=fe12b010
DTITLE=Eastern Wind Symphony - Alfred Reed - Music of Shakespeare
DYEAR=1900
DGENRE=Wind Band
TTITLE0=Alfred Reed - Music for Hamlet I. Prologue - Elsinore and the Court of Claudius
TTITLE1=Alfred Reed - Music for Hamlet II. Hamlet and Ophelia
TTITLE2=Alfred Reed - Music for Hamlet III. Entrance of the Players
TTITLE3=Alfred Reed - Music for Hamlet IV. Epilogue - The Death of Hamlet
TTITLE4=Alfred Reed - Rosalind in the Forest of Arden
TTITLE5=Alfred Reed - Othello I. Prelude
TTITLE6=Alfred Reed - Othello II. Aubade
TTITLE7=Alfred Reed - Othello III. Othello and Desdemona
TTITLE8=Alfred Reed - Othello IV. Entrance of the Court
TTITLE9=Alfred Reed - Othello V. The Death of Desdemona - Epilogue
TTITLE10=Alfred Reed - The Enchanted Island
TTITLE11=Alfred Reed - Twelfth Night or What You Will I. Perlude - Illyria
TTITLE12=Alfred Reed - Twelfth Night or What You Will II. Viola and Orsino
TTITLE13=Alfred Reed - Twelfth Night or What You Will III. The merry Conspirators
TTITLE14=Alfred Reed - Twelfth Night or What You Will IV. Malvolio's Lament
TTITLE15=Alfred Reed - Twelfth Night or What You Will V. A Double Wedding and All's Well
EXTD=
EXTT0=
EXTT1=
EXTT2=
EXTT3=
EXTT4=
EXTT5=
EXTT6=
EXTT7=
EXTT8=
EXTT9=
EXTT10=
EXTT11=
EXTT12=
EXTT13=
EXTT14=
EXTT15=
PLAYORDER=
